<svg width="245" height="245" viewBox="0 0 45 45" fill="none" xmlns="http://www.w3.org/2000/svg">
<path d="M22.5 44.8026C10.1826 44.8026 0.197367 34.8174 0.197368 22.5C0.197368 10.1826 10.1826 0.197367 22.5 0.197367C34.8174 0.197368 44.8026 10.1826 44.8026 22.5C44.8026 34.8174 34.8174 44.8026 22.5 44.8026Z" stroke="#ED192D" stroke-width="0.394737"/>
<path d="M23.4868 21.3158V21.5132H23.6842H28.8158C29.3542 21.5132 29.8026 21.9616 29.8026 22.5C29.8026 23.0384 29.3542 23.4868 28.8158 23.4868H23.6842H23.4868V23.6842V28.8158C23.4868 29.3542 23.0384 29.8026 22.5 29.8026C21.9616 29.8026 21.5132 29.3542 21.5132 28.8158V23.6842V23.4868H21.3158H16.1842C15.6458 23.4868 15.1974 23.0384 15.1974 22.5C15.1974 21.9616 15.6458 21.5132 16.1842 21.5132H21.3158H21.5132V21.3158V16.1842C21.5132 15.6458 21.9616 15.1974 22.5 15.1974C23.0384 15.1974 23.4868 15.6458 23.4868 16.1842V21.3158Z" fill="#ED192D" stroke="white" stroke-width="0.394737"/>
</svg>
