                    <svg
                      xmlns="http://www.w3.org/2000/svg"
                      width="20"
                      height="20"
                      viewBox="0 0 34 34"
                      fill="none"
                    >
                      <path
                        fill-rule="evenodd"
                        clip-rule="evenodd"
                        d="M17.0026 0C7.62123 0 0 7.616 0 16.9974C0 26.3788 7.62123 34 17.0026 34C26.384 34 34 26.3788 34 16.9974C34 7.616 26.384 0 17.0026 0ZM17.0026 1.30769C19.0634 1.30632 21.1042 1.7112 23.0084 2.4992C24.9126 3.28719 26.6428 4.44283 28.1 5.90003C29.5572 7.35723 30.7128 9.08739 31.5008 10.9916C32.2888 12.8958 32.6937 14.9366 32.6923 16.9974C32.6923 25.6713 25.6765 32.6897 17.0026 32.6897C8.32869 32.6897 1.30769 25.6713 1.30769 16.9974C1.30769 8.32346 8.32869 1.30769 17.0026 1.30769ZM24.1975 12.1929C24.0501 12.1938 23.9072 12.2445 23.7922 12.3368L13.8733 19.9881L10.3295 15.6034C10.277 15.5327 10.2108 15.4733 10.1348 15.4288C10.0588 15.3843 9.97458 15.3556 9.88723 15.3445C9.79988 15.3333 9.71118 15.3399 9.62645 15.3639C9.54172 15.3879 9.4627 15.4287 9.39414 15.484C9.32557 15.5392 9.26888 15.6078 9.22745 15.6855C9.18603 15.7632 9.16072 15.8484 9.15306 15.9362C9.1454 16.0239 9.15553 16.1123 9.18286 16.196C9.21018 16.2797 9.25413 16.357 9.31208 16.4233L13.6588 21.8071L24.5938 13.3712C24.7038 13.2886 24.785 13.1735 24.8259 13.0421C24.8667 12.9107 24.865 12.7698 24.8211 12.6394C24.7773 12.5091 24.6934 12.3959 24.5814 12.3159C24.4694 12.236 24.3351 12.1934 24.1975 12.1942V12.1929Z"
                        fill="#1A1E3E"
                      />
                    </svg>
